HIERARCHY
ROOT Hips
{
	OFFSET -1.602300 6.242603 43.997101
	CHANNELS 6 Xposition Yposition Zposition Zrotation Xrotation Yrotation
	JOINT Chest
	{
		OFFSET -0.204900 1.598101 7.917301
		CHANNELS 6 Xposition Yposition Zposition Zrotation Xrotation Yrotation
		JOINT Chest2
		{
			OFFSET 0.000000 0.000000 3.404099
			CHANNELS 6 Xposition Yposition Zposition Zrotation Xrotation Yrotation
			JOINT Neck
			{
				OFFSET 0.000000 0.000000 7.928600
				CHANNELS 6 Xposition Yposition Zposition Zrotation Xrotation Yrotation
				JOINT Head
				{
					OFFSET 0.000000 0.000000 2.173897
					CHANNELS 6 Xposition Yposition Zposition Zrotation Xrotation Yrotation
					End Site
					{
						OFFSET 0.000000 0.000001 10.404503
					}
				}
			}
			JOINT LeftCollar
			{
				OFFSET 2.833800 -1.396299 4.843300
				CHANNELS 6 Xposition Yposition Zposition Zrotation Xrotation Yrotation
				JOINT LeftShoulder
				{
					OFFSET 4.363600 0.000000 0.000000
					CHANNELS 6 Xposition Yposition Zposition Zrotation Xrotation Yrotation
					JOINT LeftElbow
					{
						OFFSET 0.000000 -0.000001 -10.306900
						CHANNELS 6 Xposition Yposition Zposition Zrotation Xrotation Yrotation
						JOINT LeftWrist
						{
							OFFSET 0.000000 -0.000001 -12.404900
							CHANNELS 6 Xposition Yposition Zposition Zrotation Xrotation Yrotation
							End Site
							{
								OFFSET 0.000000 0.000000 -2.173901
							}
						}
					}
				}
			}
			JOINT RightCollar
			{
				OFFSET -2.354800 -1.897200 5.063099
				CHANNELS 6 Xposition Yposition Zposition Zrotation Xrotation Yrotation
				JOINT RightShoulder
				{
					OFFSET -4.375800 0.000000 0.000000
					CHANNELS 6 Xposition Yposition Zposition Zrotation Xrotation Yrotation
					JOINT RightElbow
					{
						OFFSET 0.000000 -0.000001 -10.005001
						CHANNELS 6 Xposition Yposition Zposition Zrotation Xrotation Yrotation
						JOINT RightWrist
						{
							OFFSET 0.000000 -0.000001 -13.174900
							CHANNELS 6 Xposition Yposition Zposition Zrotation Xrotation Yrotation
							End Site
							{
								OFFSET 0.000000 0.000000 -2.173901
							}
						}
					}
				}
			}
		}
	}
	JOINT LeftHip
	{
		OFFSET 2.240600 0.386800 -2.614101
		CHANNELS 6 Xposition Yposition Zposition Zrotation Xrotation Yrotation
		JOINT LeftKnee
		{
			OFFSET 0.000000 -0.000001 -18.592899
			CHANNELS 6 Xposition Yposition Zposition Zrotation Xrotation Yrotation
			JOINT LeftAnkle
			{
				OFFSET 0.000000 -0.000001 -18.765800
				CHANNELS 6 Xposition Yposition Zposition Zrotation Xrotation Yrotation
				End Site
				{
					OFFSET 0.000000 -8.655000 0.000000
				}
			}
		}
	}
	JOINT RightHip
	{
		OFFSET -2.014900 -0.220900 -2.615898
		CHANNELS 6 Xposition Yposition Zposition Zrotation Xrotation Yrotation
		JOINT RightKnee
		{
			OFFSET 0.000000 -0.000001 -18.633900
			CHANNELS 6 Xposition Yposition Zposition Zrotation Xrotation Yrotation
			JOINT RightAnkle
			{
				OFFSET 0.000000 -0.000001 -18.285101
				CHANNELS 6 Xposition Yposition Zposition Zrotation Xrotation Yrotation
				End Site
				{
					OFFSET 0.000000 -7.524500 0.000000
				}
			}
		}
	}
}
MOTION
Frames: 6
Frame Time: 0.041667
-5.510099 24.189604 8.310112 5.093302 18.394207 5.291847 -0.204900 1.598103 7.917309 -4.694875 3.285399 -4.865738 0.000000 0.000001 3.404100 1.584507 -14.706420 -1.450512 -0.000001 0.000000 7.928603 2.504268 -8.037226 -1.908995 0.000001 0.000003 2.173899 -0.091697 -8.195189 0.976130 2.833803 -1.396302 4.843303 -10.575079 14.086796 23.262146 4.363597 0.000012 -0.000004 -73.126690 -3.136264 -111.409729 -0.000001 0.000008 -10.306904 198.156656 -142.963373 198.627556 -0.000002 0.000003 -12.404896 -209.169011 199.122021 -216.944594 -2.354804 -1.897201 5.063107 21.046770 16.654784 -15.238750 -4.375795 0.000011 -0.000011 65.711761 -18.078549 115.234963 -0.000007 0.000002 -10.005002 -52.817511 -14.972517 -43.297874 0.000001 0.000011 -13.174901 84.685084 -189.788158 95.456279 2.240598 0.386801 -2.614101 146.006304 -29.216633 117.840079 0.000001 -0.000003 -18.592892 -107.996929 37.012747 138.529282 -0.000001 0.000001 -18.765799 10.983257 33.987534 -16.258598 -2.014898 -0.220898 -2.615900 -122.117335 -6.695280 -109.471130 -0.000000 0.000001 -18.633883 165.686101 20.560527 -177.168482 -0.000009 -0.000003 -18.285086 -28.665337 33.624847 -224.898240
-5.505399 24.194302 8.308411 5.025918 18.276753 5.293347 -0.204900 1.598104 7.917308 -4.624142 3.344351 -4.873265 -0.000001 0.000002 3.404101 1.557319 -14.782727 -1.477382 -0.000000 0.000001 7.928602 2.680198 -8.008689 -1.983764 0.000001 0.000002 2.173906 -0.042836 -8.076754 0.578823 2.833803 -1.396300 4.843302 -11.581717 14.900201 24.971595 4.363597 0.000010 -0.000004 -72.473034 -2.068099 -113.022289 0.000003 0.000009 -10.306897 197.749139 -143.076139 198.332096 -0.000004 0.000001 -12.404899 -209.026888 199.009733 -216.429242 -2.354802 -1.897200 5.063103 21.959048 17.645565 -16.441210 -4.375796 0.000008 -0.000001 65.365190 -17.514500 116.957796 -0.000003 0.000007 -10.005003 -52.403609 -15.190182 -43.054043 0.000000 0.000009 -13.174902 84.573089 -190.060628 96.245323 2.240600 0.386806 -2.614101 146.007820 -29.276284 117.719922 -0.000001 -0.000002 -18.592890 -108.000310 37.017201 138.522001 -0.000002 0.000000 -18.765799 11.018988 33.986792 -16.410779 -2.014895 -0.220895 -2.615900 -122.045987 -6.770899 -109.348453 0.000000 0.000004 -18.633881 165.594590 20.536002 -177.122583 -0.000008 -0.000001 -18.285088 -28.721673 33.586455 -224.803833
-5.498499 24.199203 8.305405 4.964077 18.133760 5.277408 -0.204900 1.598101 7.917307 -4.555423 3.443831 -4.862783 -0.000000 -0.000004 3.404100 1.537008 -14.861168 -1.502181 0.000001 0.000001 7.928600 2.874650 -7.999039 -2.085543 -0.000000 -0.000003 2.173906 -0.144274 -8.113909 0.577100 2.833806 -1.396301 4.843298 -12.934835 15.299830 26.588084 4.363597 0.000010 -0.000010 -71.370771 -1.142389 -114.420852 -0.000001 0.000007 -10.306896 197.735985 -143.241607 198.272755 -0.000005 0.000002 -12.404894 -209.202998 198.645069 -215.444097 -2.354801 -1.897204 5.063105 22.658166 18.494996 -17.495653 -4.375795 0.000003 -0.000011 65.046268 -16.863807 118.447802 -0.000003 0.000008 -10.004997 -52.474670 -15.039781 -42.615849 0.000000 0.000009 -13.174904 85.267535 -191.455448 97.986365 2.240599 0.386803 -2.614103 145.973041 -29.267852 117.556708 -0.000001 -0.000001 -18.592892 -108.162343 37.060402 138.585809 -0.000001 0.000001 -18.765799 11.027095 34.001501 -16.674432 -2.014896 -0.220897 -2.615900 -121.988039 -6.913846 -109.210347 0.000000 0.000000 -18.633881 165.453942 20.513039 -177.074635 -0.000008 -0.000002 -18.285086 -28.783852 33.543500 -224.697214
-5.491800 24.204403 8.302204 4.917342 17.897391 5.287618 -0.204900 1.598100 7.917307 -4.480673 3.711554 -4.892850 -0.000000 0.000003 3.404099 1.515497 -14.984076 -1.526175 -0.000000 0.000002 7.928596 3.182468 -8.012451 -2.217794 0.000000 0.000002 2.173895 -0.349651 -8.103773 0.648592 2.833803 -1.396300 4.843300 -14.576918 15.796571 28.067780 4.363598 0.000006 -0.000011 -70.120395 -0.700733 -116.047414 0.000000 0.000009 -10.306896 197.436235 -143.334785 198.127751 -0.000003 0.000007 -12.404894 -209.326324 198.146178 -214.504673 -2.354802 -1.897201 5.063098 23.083633 19.136401 -18.501403 -4.375800 0.000000 -0.000005 64.946951 -16.192898 119.802706 -0.000001 0.000007 -10.004997 -52.324433 -14.881705 -42.130191 -0.000001 0.000007 -13.174905 85.851373 -192.827332 99.616431 2.240599 0.386802 -2.614104 145.945583 -29.481364 117.395365 -0.000001 -0.000000 -18.592894 -108.248055 37.180155 138.666678 0.000002 -0.000001 -18.765799 10.961683 34.027739 -16.918831 -2.014897 -0.220895 -2.615901 -121.914806 -6.972018 -108.973052 0.000000 0.000002 -18.633884 165.382020 20.469904 -177.012876 -0.000008 -0.000001 -18.285088 -28.871879 33.495613 -224.558793
-5.485299 24.210003 8.300106 4.871988 17.729663 5.263383 -0.204901 1.598099 7.917310 -4.421128 3.931791 -4.818599 -0.000001 0.000004 3.404099 1.541596 -15.053634 -1.528425 0.000000 0.000000 7.928596 3.169161 -8.111046 -2.267648 0.000000 -0.000001 2.173898 -0.432355 -8.131578 0.699847 2.833804 -1.396303 4.843298 -13.270433 15.926543 27.679352 4.363600 0.000007 -0.000005 -71.273659 -0.557495 -115.761215 0.000001 0.000005 -10.306902 197.889718 -143.706675 198.366343 -0.000003 0.000002 -12.404895 -210.235067 197.846798 -213.662879 -2.354802 -1.897202 5.063096 22.822838 18.960410 -18.732296 -4.375796 0.000003 -0.000006 64.881251 -15.625955 120.102429 -0.000003 0.000000 -10.004994 -51.597185 -15.313272 -41.480883 0.000002 0.000008 -13.174905 85.590808 -193.954655 100.861882 2.240598 0.386802 -2.614103 145.917634 -29.653840 117.249773 -0.000000 -0.000002 -18.592892 -108.325113 37.336823 138.756987 -0.000001 -0.000000 -18.765799 10.855667 34.066849 -17.142989 -2.014897 -0.220900 -2.615900 -121.856367 -7.009346 -108.804832 -0.000000 0.000002 -18.633883 165.303856 20.423002 -176.941282 -0.000008 0.000000 -18.285088 -28.974837 33.443205 -224.406234
-5.480299 24.216501 8.300205 4.818485 17.534518 5.323895 -0.204901 1.598099 7.917314 -4.355229 4.086655 -4.842757 -0.000001 0.000004 3.404100 1.536984 -15.069708 -1.526157 0.000000 0.000002 7.928599 3.011627 -8.087653 -2.244743 0.000000 -0.000001 2.173899 -0.328995 -8.128822 0.702201 2.833804 -1.396296 4.843301 -12.942410 15.812769 27.160765 4.363601 0.000010 -0.000005 -71.437536 -0.822417 -115.577743 -0.000001 0.000005 -10.306899 198.073164 -144.040343 198.440314 -0.000002 0.000005 -12.404896 -210.941964 197.584600 -213.079376 -2.354802 -1.897201 5.063105 22.727398 18.823873 -18.680362 -4.375798 0.000003 -0.000008 64.768696 -15.601977 120.377016 -0.000002 0.000008 -10.004997 -50.848146 -15.516542 -40.947913 0.000001 0.000005 -13.174900 85.751796 -195.158025 101.965640 2.240601 0.386803 -2.614103 145.933111 -29.949355 117.167824 -0.000000 0.000000 -18.592892 -108.369626 37.530759 138.849850 0.000000 0.000002 -18.765797 10.715867 34.114544 -17.371405 -2.014900 -0.220897 -2.615901 -121.774787 -7.009756 -108.573937 -0.000001 0.000003 -18.633883 165.231825 20.386931 -176.875521 -0.000007 -0.000002 -18.285086 -29.059204 33.399376 -224.277253
